<?xml version="1.0" encoding="UTF-8" standalone="no"?>
<!-- Created with Inkscape (http://www.inkscape.org/) -->

<svg
   xmlns:dc="http://purl.org/dc/elements/1.1/"
   xmlns:cc="http://creativecommons.org/ns#"
   xmlns:rdf="http://www.w3.org/1999/02/22-rdf-syntax-ns#"
   xmlns:svg="http://www.w3.org/2000/svg"
   xmlns="http://www.w3.org/2000/svg"
   xmlns:sodipodi="http://sodipodi.sourceforge.net/DTD/sodipodi-0.dtd"
   xmlns:inkscape="http://www.inkscape.org/namespaces/inkscape"
   width="128"
   height="128"
   viewBox="0 0 33.866666 33.866668"
   version="1.1"
   id="svg8"
   inkscape:version="0.92.1 r15371"
   sodipodi:docname="SUSEgo.svg"
   inkscape:export-filename="/home/cho2/skelcd-openSUSE/skelcd/SUSEgo.png"
   inkscape:export-xdpi="96"
   inkscape:export-ydpi="96">
  <defs
     id="defs2" />
  <sodipodi:namedview
     id="base"
     pagecolor="#ffffff"
     bordercolor="#666666"
     borderopacity="1.0"
     inkscape:pageopacity="0.0"
     inkscape:pageshadow="2"
     inkscape:zoom="3.959798"
     inkscape:cx="106.89607"
     inkscape:cy="72.806758"
     inkscape:document-units="px"
     inkscape:current-layer="layer1"
     showgrid="false"
     units="px"
     inkscape:window-width="1920"
     inkscape:window-height="1020"
     inkscape:window-x="0"
     inkscape:window-y="28"
     inkscape:window-maximized="1" />
  <metadata
     id="metadata5">
    <rdf:RDF>
      <cc:Work
         rdf:about="">
        <dc:format>image/svg+xml</dc:format>
        <dc:type
           rdf:resource="http://purl.org/dc/dcmitype/StillImage" />
        <dc:title></dc:title>
      </cc:Work>
    </rdf:RDF>
  </metadata>
  <g
     inkscape:label="Layer 1"
     inkscape:groupmode="layer"
     id="layer1"
     transform="translate(0,-263.13331)">
    <g
       id="g5543">
      <path
         id="path5539"
         d="m 32.123161,276.30368 h -3.168415 c -0.509254,0 -0.928825,-0.28034 -1.12387,-0.75071 -0.195049,-0.47037 -0.09596,-0.96583 0.263405,-1.32582 l 2.24022,-2.23959 c 0.329258,-0.32926 0.510508,-0.76764 0.510508,-1.233 0,-0.46598 -0.18125,-0.90373 -0.510508,-1.23362 l -2.855463,-2.85546 c -0.658519,-0.65852 -1.80685,-0.65977 -2.466623,0 l -2.23959,2.23959 c -0.35999,0.35936 -0.856701,0.45971 -1.325817,0.26403 -0.47037,-0.19504 -0.750711,-0.61461 -0.750711,-1.12387 v -3.16841 c 0,-0.96144 -0.782069,-1.74351 -1.743507,-1.74351 h -4.038913 c -0.961437,0 -1.743506,0.78207 -1.743506,1.74351 v 3.16841 c 0,0.50926 -0.280341,0.92883 -0.750711,1.12387 -0.469117,0.1963 -0.965828,0.0953 -1.325818,-0.26403 l -2.23959,-2.23959 c -0.659773,-0.65977 -1.808104,-0.65852 -2.466622,0 l -2.855462,2.85546 c -0.329259,0.32926 -0.510509,0.76764 -0.510509,1.23362 0,0.46536 0.18125,0.90312 0.510509,1.233 l 2.240217,2.23959 c 0.359363,0.35999 0.457827,0.85545 0.263408,1.32582 -0.19442,0.47037 -0.614618,0.75071 -1.123872,0.75071 H 1.743506 C 0.782069,276.30368 0,277.08575 0,278.04719 v 4.03828 c 0,0.96207 0.782069,1.74414 1.743506,1.74414 h 3.168415 c 0.509254,0 0.928825,0.28034 1.123872,0.75071 0.195047,0.47037 0.09596,0.96583 -0.263408,1.32582 l -2.240217,2.23959 c -0.329259,0.32925 -0.510509,0.76764 -0.510509,1.23299 0,0.46598 0.18125,0.90374 0.510509,1.23363 l 2.855462,2.85546 c 0.659145,0.65914 1.806849,0.6604 2.466622,0 l 2.23959,-2.24022 c 0.35999,-0.35936 0.85482,-0.45845 1.325818,-0.2634 0.47037,0.19504 0.750711,0.61461 0.750711,1.12387 v 3.16841 c 0,0.96144 0.782069,1.74351 1.743506,1.74351 h 4.038286 c 0.961437,0 1.743507,-0.78207 1.743507,-1.74351 v -3.16841 c 0,-0.50926 0.28034,-0.92883 0.750711,-1.12387 0.470997,-0.19568 0.965827,-0.096 1.325817,0.2634 l 2.23959,2.24022 c 0.659773,0.65977 1.808104,0.65852 2.466623,0 l 2.855463,-2.85546 c 0.329258,-0.32926 0.510508,-0.76765 0.510508,-1.23363 0,-0.46535 -0.18125,-0.90311 -0.510508,-1.23299 l -2.24022,-2.23959 c -0.359362,-0.35999 -0.457827,-0.85545 -0.263406,-1.32582 0.194419,-0.47037 0.615244,-0.75071 1.124498,-0.75071 h 3.168415 c 0.961437,0 1.743506,-0.78207 1.743506,-1.74351 v -4.03891 c 0,-0.96144 -0.782069,-1.74351 -1.743506,-1.74351 z"
         style="stroke-width:0.05291667;stroke-miterlimit:4;stroke-dasharray:none;stroke:#1a1a1a;fill:#1a1a1a" />
      <path
         id="path5457"
         d="m 32.612346,282.0861 c 0,0.26968 -0.219506,0.48919 -0.489185,0.48919 h -3.168415 c -1.018508,0 -1.893398,0.58451 -2.282865,1.52525 -0.390093,0.94074 -0.185012,1.97305 0.535596,2.69303 l 2.240217,2.23959 c 0.191283,0.19128 0.191283,0.50173 0,0.69238 l -2.85546,2.85546 c -0.190658,0.19066 -0.501103,0.19192 -0.692387,0 l -2.23959,-2.24021 c -0.720607,-0.72061 -1.752286,-0.92444 -2.693027,-0.5356 -0.940741,0.38947 -1.525254,1.26436 -1.525254,2.28287 v 3.16841 c 0,0.26968 -0.219506,0.48919 -0.489186,0.48919 h -4.038913 c -0.269679,0 -0.489185,-0.21951 -0.489185,-0.48919 v -3.16841 c 0,-1.01851 -0.584514,-1.8934 -1.525255,-2.28287 -0.315461,-0.13108 -0.640331,-0.19504 -0.961437,-0.19504 -0.63594,0 -1.252439,0.25086 -1.73159,0.73001 l -2.23959,2.24022 c -0.191911,0.19191 -0.502356,0.19065 -0.692385,0 l -2.855462,-2.85547 c -0.191284,-0.19128 -0.191284,-0.50172 0,-0.69238 l 2.240217,-2.23959 c 0.71998,-0.71998 0.925689,-1.75229 0.535595,-2.69303 C 6.805318,283.1598 5.93043,282.57529 4.911921,282.57529 H 1.743506 c -0.269679,0 -0.489185,-0.21951 -0.489185,-0.48919 v -4.03891 c 0,-0.26968 0.219506,-0.48919 0.489185,-0.48919 h 3.168415 c 1.018509,0 1.893397,-0.58451 2.282864,-1.52525 0.390094,-0.94074 0.185012,-1.97305 -0.535595,-2.69303 l -2.240217,-2.23959 c -0.191284,-0.19128 -0.191284,-0.50173 0,-0.69239 l 2.855462,-2.85546 c 0.190656,-0.19128 0.501101,-0.19128 0.692385,0 l 2.23959,2.23959 c 0.719353,0.71936 1.751032,0.92569 2.693027,0.5356 0.940741,-0.38884 1.525255,-1.26373 1.525255,-2.28224 v -3.16841 c 0,-0.26968 0.219506,-0.48919 0.489185,-0.48919 h 4.038286 c 0.270307,0 0.489813,0.21951 0.489813,0.48919 v 3.16841 c 0,1.01851 0.584513,1.8934 1.525254,2.28287 0.941995,0.39009 1.973047,0.18438 2.693027,-0.5356 l 2.23959,-2.23959 c 0.191912,-0.19128 0.502356,-0.19128 0.692387,0 l 2.85546,2.85546 c 0.191283,0.19129 0.191283,0.50173 0,0.69239 l -2.240217,2.23959 c -0.719981,0.71998 -0.925689,1.75228 -0.535596,2.69302 0.389467,0.94075 1.264357,1.52526 2.282865,1.52526 h 3.168415 c 0.269679,-6.4e-4 0.489185,0.21888 0.489185,0.48856 z"
         style="stroke-width:0.05291667;stroke-miterlimit:4;stroke-dasharray:none;stroke:#1a1a1a;fill:#ffffff" />
    </g>
    <g
       id="g5419"
       transform="matrix(0.05949415,0,0,0.05949415,-36.875375,259.99231)" />
    <g
       transform="matrix(0.03253586,0,0,0.03253586,4.8284566,262.94689)"
       id="layer1-5"
       inkscape:label="logo"
       style="fill:#73ba25">
      <g
         style="fill:#73ba25"
         transform="matrix(1.0842736,0,0,1.0842736,239.71464,375.4698)"
         inkscape:label="Layer 1"
         id="layer1-7">
        <text
           transform="translate(-250,-387.18362)"
           id="text3761"
           y="438.79074"
           x="164.64285"
           style="font-style:normal;font-weight:normal;line-height:0%;font-family:sans-serif;letter-spacing:0px;word-spacing:0px;fill:#73ba25;fill-opacity:1;stroke:none"
           xml:space="preserve"><tspan
             style="font-size:8px;line-height:1.25;font-family:sans-serif;fill:#73ba25"
             y="438.79074"
             x="164.64285"
             id="tspan3763"
             sodipodi:role="line"> </tspan></text>
        <text
           transform="translate(-250,-387.18362)"
           id="text3765"
           y="434.68362"
           x="165.35715"
           style="font-style:normal;font-weight:normal;line-height:0%;font-family:sans-serif;letter-spacing:0px;word-spacing:0px;fill:#73ba25;fill-opacity:1;stroke:none"
           xml:space="preserve"><tspan
             style="font-size:12px;line-height:1.25;font-family:sans-serif;fill:#73ba25"
             id="tspan3773"
             y="434.68362"
             x="165.35715"
             sodipodi:role="line"> </tspan></text>
        <g
           style="fill:#73ba25"
           transform="matrix(3.7583893,0,0,3.7583893,-253.79169,-236.84146)"
           inkscape:label="Layer 1"
           id="layer1-8">
          <path
             inkscape:connector-curvature="0"
             style="font-size:20.48839951px;font-family:TrebuchetMS-Bold;fill:#73ba25;fill-opacity:1;fill-rule:evenodd;stroke:none"
             d="m 100,30.15625 c -38.57068,0 -69.84375,31.269508 -69.84375,69.84375 0,38.57424 31.273072,69.84375 69.84375,69.84375 38.57068,0 69.84374,-31.26951 69.84375,-69.84375 0,-38.57424 -31.27307,-69.84375 -69.84375,-69.84375 z m 0.33443,9.672652 c 33.23352,0 60.19682,26.941143 60.19682,60.171098 0,33.23353 -26.96686,60.1711 -60.19682,60.1711 -17.944821,0 -34.047203,-7.86473 -45.070445,-20.32286 4.532491,-3.51775 12.115629,-2.65954 21.454765,-1.59496 4.475525,0.50915 9.577453,1.09159 14.843405,1.20908 14.711895,0.0855 30.541335,-2.5996 40.311295,-6.86861 6.31629,-2.77006 10.36035,-4.59427 12.88829,-6.89434 0.91149,-0.7477 1.39015,-1.99679 1.87794,-3.29281 l 0.33442,-0.87466 c 0.40946,-1.04678 0.99706,-3.29926 1.26053,-4.52762 0.1175,-0.53764 0.17517,-1.1158 -0.2058,-1.41489 l -1.36343,0.25726 c -4.28682,2.57066 -14.99713,7.4667 -25.03056,7.66609 -12.43319,0.25991 -37.492093,-12.51643 -40.105489,-13.86585 l -0.257252,-0.3087 c -0.626644,-1.49541 -4.376768,-10.39808 -5.170752,-12.270896 18.037389,11.877766 32.991863,18.452076 44.453043,19.473926 12.74296,1.13224 22.683,-5.82499 26.93421,-8.79799 0.8296,-0.56612 1.46367,-1.01005 1.72359,-1.10618 l 0.28298,-0.46306 c -0.70498,-4.47909 -7.39073,-26.153517 -12.42525,-31.35894 -1.39571,-1.427752 -2.50536,-2.81725 -4.75915,-4.141747 C 114.08824,60.052429 70.821318,53.655843 68.795407,53.360325 l -0.334426,0.1029 -0.128626,0.282977 c 0,0 -0.162274,8.984421 -0.180076,9.981353 -1.484722,-0.491344 -6.088485,-1.998597 -12.682493,-3.80732 8.603733,-10.645844 21.789033,-20.091332 44.864644,-20.091333 z m 15.89813,31.847721 c 0.30705,-0.0046 0.61701,-0.01024 0.92611,0 10.20789,0.366729 18.22788,8.964457 17.87897,19.165228 -0.18159,4.934825 -2.26212,9.494349 -5.86533,12.862569 -3.6139,3.38602 -8.31087,5.1509 -13.27417,4.99068 -10.1901,-0.38097 -18.2101,-8.978697 -17.878976,-19.165231 0.174464,-4.941948 2.266486,-9.530764 5.891056,-12.888294 3.38468,-3.174391 7.71664,-4.895833 12.32234,-4.964952 z m -0.48878,5.453729 c -2.97293,0.180743 -5.77842,1.387872 -7.97479,3.447169 -2.50301,2.349915 -3.97993,5.531532 -4.0903,8.978073 -0.23499,7.120959 5.33713,13.113596 12.45097,13.377076 3.45722,0.10681 6.73667,-1.10438 9.26105,-3.447173 2.51726,-2.360599 3.98349,-5.571496 4.0903,-9.003798 0.23855,-7.131643 -5.35929,-13.102113 -12.47669,-13.351347 -0.43082,-0.01602 -0.83583,-0.02582 -1.26054,0 z m 3.39572,6.45701 c 3.16171,0 5.71099,1.718121 5.71098,3.833045 0,2.104248 -2.54927,3.833044 -5.71098,3.833046 -3.17239,0 -5.7367,-1.732365 -5.7367,-3.833046 0,-2.114922 2.56431,-3.833043 5.7367,-3.833045 z"
             id="path2445" />
        </g>
      </g>
    </g>
    <g
       id="g5518"
       transform="matrix(0.6271605,0,0,0.6271605,-32.505953,261.81039)">
      <g
         id="g5461" />
      <g
         id="g5463" />
      <g
         id="g5465" />
      <g
         id="g5467" />
      <g
         id="g5469" />
      <g
         id="g5471" />
      <g
         id="g5473" />
      <g
         id="g5475" />
      <g
         id="g5477" />
      <g
         id="g5479" />
      <g
         id="g5481" />
      <g
         id="g5483" />
      <g
         id="g5485" />
      <g
         id="g5487" />
      <g
         id="g5489" />
      <g
         id="g5491" />
    </g>
  </g>
</svg>
